<mxfile host="app.diagrams.net" modified="2021-02-04T08:16:27.521Z" agent="5.0 (Windows NT 10.0; Win64; x64) AppleWebKit/537.36 (KHTML, like Gecko) Chrome/88.0.4324.104 Safari/537.36" etag="Q1Z6zccmH-tmsbn5V0XR" version="14.1.9" type="github">
  <diagram id="LtgWDTZlTGOSTzezbCFC" name="Page-1">
    <mxGraphModel dx="1422" dy="747" grid="1" gridSize="10" guides="1" tooltips="1" connect="1" arrows="1" fold="1" page="1" pageScale="1" pageWidth="827" pageHeight="1169" math="0" shadow="0">
      <root>
        <mxCell id="0" />
        <mxCell id="1" parent="0" />
        <mxCell id="kB5-pjULN5O7tpdBy4ha-1" value="" style="rounded=0;whiteSpace=wrap;html=1;" vertex="1" parent="1">
          <mxGeometry x="43" y="230" width="870" height="1280" as="geometry" />
        </mxCell>
        <mxCell id="kB5-pjULN5O7tpdBy4ha-2" value="" style="rounded=0;whiteSpace=wrap;html=1;" vertex="1" parent="1">
          <mxGeometry x="235" y="1560" width="485" height="590" as="geometry" />
        </mxCell>
        <mxCell id="kB5-pjULN5O7tpdBy4ha-3" value="" style="rounded=0;whiteSpace=wrap;html=1;fillColor=#f5f5f5;strokeColor=#666666;fontColor=#333333;" vertex="1" parent="1">
          <mxGeometry x="189" y="920" width="591" height="430" as="geometry" />
        </mxCell>
        <mxCell id="kB5-pjULN5O7tpdBy4ha-4" value="" style="rounded=0;whiteSpace=wrap;html=1;fillColor=#f5f5f5;strokeColor=#666666;fontColor=#333333;" vertex="1" parent="1">
          <mxGeometry x="182.5" y="270" width="435" height="260" as="geometry" />
        </mxCell>
        <mxCell id="kB5-pjULN5O7tpdBy4ha-5" style="edgeStyle=orthogonalEdgeStyle;rounded=0;orthogonalLoop=1;jettySize=auto;html=1;entryX=0.45;entryY=0.033;entryDx=0;entryDy=0;entryPerimeter=0;" edge="1" parent="1" source="kB5-pjULN5O7tpdBy4ha-7" target="kB5-pjULN5O7tpdBy4ha-9">
          <mxGeometry relative="1" as="geometry" />
        </mxCell>
        <mxCell id="kB5-pjULN5O7tpdBy4ha-6" value="XML" style="edgeLabel;html=1;align=center;verticalAlign=middle;resizable=0;points=[];" vertex="1" connectable="0" parent="kB5-pjULN5O7tpdBy4ha-5">
          <mxGeometry x="0.24" relative="1" as="geometry">
            <mxPoint x="-30" y="-1" as="offset" />
          </mxGeometry>
        </mxCell>
        <mxCell id="kB5-pjULN5O7tpdBy4ha-7" value="Fulltext.ts&lt;br&gt;(get XML )" style="rounded=0;whiteSpace=wrap;html=1;" vertex="1" parent="1">
          <mxGeometry x="330" y="70" width="120" height="60" as="geometry" />
        </mxCell>
        <mxCell id="kB5-pjULN5O7tpdBy4ha-8" style="edgeStyle=orthogonalEdgeStyle;rounded=0;orthogonalLoop=1;jettySize=auto;html=1;entryX=0.487;entryY=0;entryDx=0;entryDy=0;entryPerimeter=0;exitX=0.47;exitY=0.983;exitDx=0;exitDy=0;exitPerimeter=0;" edge="1" parent="1" source="kB5-pjULN5O7tpdBy4ha-9" target="kB5-pjULN5O7tpdBy4ha-4">
          <mxGeometry relative="1" as="geometry">
            <mxPoint x="403" y="270" as="targetPoint" />
          </mxGeometry>
        </mxCell>
        <mxCell id="kB5-pjULN5O7tpdBy4ha-9" value="FullTextMultipartParser(xml, params)" style="rounded=0;whiteSpace=wrap;html=1;" vertex="1" parent="1">
          <mxGeometry x="300" y="160" width="200" height="60" as="geometry" />
        </mxCell>
        <mxCell id="kB5-pjULN5O7tpdBy4ha-10" value="XML" style="edgeLabel;html=1;align=center;verticalAlign=middle;resizable=0;points=[];" vertex="1" connectable="0" parent="1">
          <mxGeometry x="380" y="160" as="geometry">
            <mxPoint x="-7" y="83" as="offset" />
          </mxGeometry>
        </mxCell>
        <mxCell id="kB5-pjULN5O7tpdBy4ha-11" style="edgeStyle=orthogonalEdgeStyle;rounded=0;orthogonalLoop=1;jettySize=auto;html=1;" edge="1" parent="1" source="kB5-pjULN5O7tpdBy4ha-12" target="kB5-pjULN5O7tpdBy4ha-14">
          <mxGeometry relative="1" as="geometry" />
        </mxCell>
        <mxCell id="kB5-pjULN5O7tpdBy4ha-12" value="normalizeHTMLTags&lt;br&gt;(change specific symbols to elements ex. &amp;amp;lt; =&amp;gt; &#39;&amp;lt;&#39;)" style="rounded=1;whiteSpace=wrap;html=1;" vertex="1" parent="1">
          <mxGeometry x="305" y="330" width="190" height="60" as="geometry" />
        </mxCell>
        <mxCell id="kB5-pjULN5O7tpdBy4ha-13" style="edgeStyle=orthogonalEdgeStyle;rounded=0;orthogonalLoop=1;jettySize=auto;html=1;" edge="1" parent="1" source="kB5-pjULN5O7tpdBy4ha-14" target="kB5-pjULN5O7tpdBy4ha-18">
          <mxGeometry relative="1" as="geometry" />
        </mxCell>
        <mxCell id="kB5-pjULN5O7tpdBy4ha-14" value="Create HTML Document" style="rounded=1;whiteSpace=wrap;html=1;" vertex="1" parent="1">
          <mxGeometry x="305" y="450" width="190" height="60" as="geometry" />
        </mxCell>
        <mxCell id="kB5-pjULN5O7tpdBy4ha-15" value="updated XML" style="edgeLabel;html=1;align=center;verticalAlign=middle;resizable=0;points=[];" vertex="1" connectable="0" parent="1">
          <mxGeometry x="364" y="160" as="geometry">
            <mxPoint x="-9" y="260" as="offset" />
          </mxGeometry>
        </mxCell>
        <mxCell id="kB5-pjULN5O7tpdBy4ha-16" style="edgeStyle=orthogonalEdgeStyle;rounded=0;orthogonalLoop=1;jettySize=auto;html=1;entryX=0.5;entryY=0;entryDx=0;entryDy=0;" edge="1" parent="1" source="kB5-pjULN5O7tpdBy4ha-18" target="kB5-pjULN5O7tpdBy4ha-23">
          <mxGeometry relative="1" as="geometry" />
        </mxCell>
        <mxCell id="kB5-pjULN5O7tpdBy4ha-17" style="edgeStyle=orthogonalEdgeStyle;rounded=0;orthogonalLoop=1;jettySize=auto;html=1;entryX=0.5;entryY=0;entryDx=0;entryDy=0;" edge="1" parent="1" source="kB5-pjULN5O7tpdBy4ha-18" target="kB5-pjULN5O7tpdBy4ha-26">
          <mxGeometry relative="1" as="geometry">
            <Array as="points">
              <mxPoint x="280" y="625" />
              <mxPoint x="280" y="710" />
            </Array>
          </mxGeometry>
        </mxCell>
        <mxCell id="kB5-pjULN5O7tpdBy4ha-18" value="isValid HTML?" style="rhombus;whiteSpace=wrap;html=1;" vertex="1" parent="1">
          <mxGeometry x="340" y="570" width="120" height="110" as="geometry" />
        </mxCell>
        <mxCell id="kB5-pjULN5O7tpdBy4ha-19" style="edgeStyle=orthogonalEdgeStyle;rounded=0;orthogonalLoop=1;jettySize=auto;html=1;entryX=0.5;entryY=0;entryDx=0;entryDy=0;" edge="1" parent="1" source="kB5-pjULN5O7tpdBy4ha-20" target="kB5-pjULN5O7tpdBy4ha-31">
          <mxGeometry relative="1" as="geometry" />
        </mxCell>
        <mxCell id="kB5-pjULN5O7tpdBy4ha-20" value="HighlightByRanges&lt;br&gt;convert to DOM, highlight and convert to string" style="ellipse;whiteSpace=wrap;html=1;" vertex="1" parent="1">
          <mxGeometry x="312" y="810" width="176" height="100" as="geometry" />
        </mxCell>
        <mxCell id="kB5-pjULN5O7tpdBy4ha-21" value="Yes" style="text;html=1;align=center;verticalAlign=middle;resizable=0;points=[];autosize=1;" vertex="1" parent="1">
          <mxGeometry x="488" y="600" width="40" height="20" as="geometry" />
        </mxCell>
        <mxCell id="kB5-pjULN5O7tpdBy4ha-22" style="edgeStyle=orthogonalEdgeStyle;rounded=0;orthogonalLoop=1;jettySize=auto;html=1;entryX=1;entryY=0.5;entryDx=0;entryDy=0;" edge="1" parent="1" source="kB5-pjULN5O7tpdBy4ha-23" target="kB5-pjULN5O7tpdBy4ha-20">
          <mxGeometry relative="1" as="geometry" />
        </mxCell>
        <mxCell id="kB5-pjULN5O7tpdBy4ha-23" value="Convert HTML to XML(updated XML)" style="rounded=0;whiteSpace=wrap;html=1;" vertex="1" parent="1">
          <mxGeometry x="470" y="690" width="120" height="60" as="geometry" />
        </mxCell>
        <mxCell id="kB5-pjULN5O7tpdBy4ha-24" value="XML" style="text;html=1;align=center;verticalAlign=middle;resizable=0;points=[];autosize=1;" vertex="1" parent="1">
          <mxGeometry x="540" y="800" width="40" height="20" as="geometry" />
        </mxCell>
        <mxCell id="kB5-pjULN5O7tpdBy4ha-25" style="edgeStyle=orthogonalEdgeStyle;rounded=0;orthogonalLoop=1;jettySize=auto;html=1;entryX=0;entryY=0.5;entryDx=0;entryDy=0;" edge="1" parent="1" source="kB5-pjULN5O7tpdBy4ha-26" target="kB5-pjULN5O7tpdBy4ha-20">
          <mxGeometry relative="1" as="geometry" />
        </mxCell>
        <mxCell id="kB5-pjULN5O7tpdBy4ha-26" value="return basic XML" style="rounded=0;whiteSpace=wrap;html=1;" vertex="1" parent="1">
          <mxGeometry x="220" y="690" width="120" height="60" as="geometry" />
        </mxCell>
        <mxCell id="kB5-pjULN5O7tpdBy4ha-27" value="No" style="text;html=1;align=center;verticalAlign=middle;resizable=0;points=[];autosize=1;" vertex="1" parent="1">
          <mxGeometry x="294" y="600" width="30" height="20" as="geometry" />
        </mxCell>
        <mxCell id="kB5-pjULN5O7tpdBy4ha-28" value="this.body" style="text;html=1;strokeColor=none;fillColor=none;align=center;verticalAlign=middle;whiteSpace=wrap;rounded=0;" vertex="1" parent="1">
          <mxGeometry x="540" y="280" width="60" height="20" as="geometry" />
        </mxCell>
        <mxCell id="kB5-pjULN5O7tpdBy4ha-29" style="edgeStyle=orthogonalEdgeStyle;rounded=0;orthogonalLoop=1;jettySize=auto;html=1;entryX=0.5;entryY=0;entryDx=0;entryDy=0;exitX=0;exitY=0.5;exitDx=0;exitDy=0;" edge="1" parent="1" source="kB5-pjULN5O7tpdBy4ha-31" target="kB5-pjULN5O7tpdBy4ha-33">
          <mxGeometry relative="1" as="geometry" />
        </mxCell>
        <mxCell id="kB5-pjULN5O7tpdBy4ha-30" style="edgeStyle=orthogonalEdgeStyle;rounded=0;orthogonalLoop=1;jettySize=auto;html=1;exitX=1;exitY=0.5;exitDx=0;exitDy=0;entryX=0;entryY=0.5;entryDx=0;entryDy=0;" edge="1" parent="1" source="kB5-pjULN5O7tpdBy4ha-31" target="kB5-pjULN5O7tpdBy4ha-37">
          <mxGeometry relative="1" as="geometry">
            <mxPoint x="510" y="1000" as="targetPoint" />
          </mxGeometry>
        </mxCell>
        <mxCell id="kB5-pjULN5O7tpdBy4ha-31" value="isRanges?" style="rhombus;whiteSpace=wrap;html=1;" vertex="1" parent="1">
          <mxGeometry x="360" y="960" width="80" height="80" as="geometry" />
        </mxCell>
        <mxCell id="kB5-pjULN5O7tpdBy4ha-32" style="edgeStyle=orthogonalEdgeStyle;rounded=0;orthogonalLoop=1;jettySize=auto;html=1;entryX=0;entryY=0.5;entryDx=0;entryDy=0;" edge="1" parent="1" source="kB5-pjULN5O7tpdBy4ha-33" target="kB5-pjULN5O7tpdBy4ha-45">
          <mxGeometry relative="1" as="geometry" />
        </mxCell>
        <mxCell id="kB5-pjULN5O7tpdBy4ha-33" value="return XML" style="rounded=1;whiteSpace=wrap;html=1;" vertex="1" parent="1">
          <mxGeometry x="240" y="1180" width="120" height="60" as="geometry" />
        </mxCell>
        <mxCell id="kB5-pjULN5O7tpdBy4ha-34" value="Yes" style="text;html=1;align=center;verticalAlign=middle;resizable=0;points=[];autosize=1;" vertex="1" parent="1">
          <mxGeometry x="440" y="970" width="40" height="20" as="geometry" />
        </mxCell>
        <mxCell id="kB5-pjULN5O7tpdBy4ha-35" value="No" style="text;html=1;align=center;verticalAlign=middle;resizable=0;points=[];autosize=1;" vertex="1" parent="1">
          <mxGeometry x="325" y="970" width="30" height="20" as="geometry" />
        </mxCell>
        <mxCell id="kB5-pjULN5O7tpdBy4ha-36" style="edgeStyle=orthogonalEdgeStyle;rounded=0;orthogonalLoop=1;jettySize=auto;html=1;entryX=0.5;entryY=0;entryDx=0;entryDy=0;" edge="1" parent="1" source="kB5-pjULN5O7tpdBy4ha-37" target="kB5-pjULN5O7tpdBy4ha-39">
          <mxGeometry relative="1" as="geometry" />
        </mxCell>
        <mxCell id="kB5-pjULN5O7tpdBy4ha-37" value="Convert XML to HTML" style="rounded=1;whiteSpace=wrap;html=1;" vertex="1" parent="1">
          <mxGeometry x="590" y="970" width="120" height="60" as="geometry" />
        </mxCell>
        <mxCell id="kB5-pjULN5O7tpdBy4ha-38" style="edgeStyle=orthogonalEdgeStyle;rounded=0;orthogonalLoop=1;jettySize=auto;html=1;" edge="1" parent="1" source="kB5-pjULN5O7tpdBy4ha-39" target="kB5-pjULN5O7tpdBy4ha-42">
          <mxGeometry relative="1" as="geometry" />
        </mxCell>
        <mxCell id="kB5-pjULN5O7tpdBy4ha-39" value="get text nodes and apply highlight logic&amp;nbsp;" style="rounded=1;whiteSpace=wrap;html=1;" vertex="1" parent="1">
          <mxGeometry x="590" y="1060" width="120" height="60" as="geometry" />
        </mxCell>
        <mxCell id="kB5-pjULN5O7tpdBy4ha-40" value="highlight logic" style="text;html=1;strokeColor=none;fillColor=none;align=center;verticalAlign=middle;whiteSpace=wrap;rounded=0;" vertex="1" parent="1">
          <mxGeometry x="700" y="920" width="80" height="30" as="geometry" />
        </mxCell>
        <mxCell id="kB5-pjULN5O7tpdBy4ha-41" style="edgeStyle=orthogonalEdgeStyle;rounded=0;orthogonalLoop=1;jettySize=auto;html=1;" edge="1" parent="1" source="kB5-pjULN5O7tpdBy4ha-42" target="kB5-pjULN5O7tpdBy4ha-43">
          <mxGeometry relative="1" as="geometry" />
        </mxCell>
        <mxCell id="kB5-pjULN5O7tpdBy4ha-42" value="convert back to XML" style="rounded=1;whiteSpace=wrap;html=1;" vertex="1" parent="1">
          <mxGeometry x="590" y="1150" width="120" height="60" as="geometry" />
        </mxCell>
        <mxCell id="kB5-pjULN5O7tpdBy4ha-43" value="decode and return XML" style="rounded=1;whiteSpace=wrap;html=1;" vertex="1" parent="1">
          <mxGeometry x="590" y="1240" width="120" height="60" as="geometry" />
        </mxCell>
        <mxCell id="kB5-pjULN5O7tpdBy4ha-44" style="edgeStyle=orthogonalEdgeStyle;rounded=0;orthogonalLoop=1;jettySize=auto;html=1;entryX=0.429;entryY=0.002;entryDx=0;entryDy=0;entryPerimeter=0;" edge="1" parent="1" source="kB5-pjULN5O7tpdBy4ha-45" target="kB5-pjULN5O7tpdBy4ha-2">
          <mxGeometry relative="1" as="geometry">
            <mxPoint x="443" y="1540" as="targetPoint" />
          </mxGeometry>
        </mxCell>
        <mxCell id="kB5-pjULN5O7tpdBy4ha-45" value="fulltext" style="rounded=1;whiteSpace=wrap;html=1;" vertex="1" parent="1">
          <mxGeometry x="340" y="1400" width="206" height="90" as="geometry" />
        </mxCell>
        <mxCell id="kB5-pjULN5O7tpdBy4ha-46" value="Ex. DescriptionComponent" style="text;html=1;strokeColor=none;fillColor=none;align=center;verticalAlign=middle;whiteSpace=wrap;rounded=0;" vertex="1" parent="1">
          <mxGeometry x="235" y="1570" width="140" height="20" as="geometry" />
        </mxCell>
        <mxCell id="kB5-pjULN5O7tpdBy4ha-47" value="XML" style="text;html=1;align=center;verticalAlign=middle;resizable=0;points=[];autosize=1;" vertex="1" parent="1">
          <mxGeometry x="394" y="1520" width="40" height="20" as="geometry" />
        </mxCell>
        <mxCell id="kB5-pjULN5O7tpdBy4ha-48" style="edgeStyle=orthogonalEdgeStyle;rounded=0;orthogonalLoop=1;jettySize=auto;html=1;" edge="1" parent="1" source="kB5-pjULN5O7tpdBy4ha-49" target="kB5-pjULN5O7tpdBy4ha-51">
          <mxGeometry relative="1" as="geometry" />
        </mxCell>
        <mxCell id="kB5-pjULN5O7tpdBy4ha-49" value="contentFromFullText" style="rounded=1;whiteSpace=wrap;html=1;" vertex="1" parent="1">
          <mxGeometry x="389" y="1580" width="120" height="60" as="geometry" />
        </mxCell>
        <mxCell id="kB5-pjULN5O7tpdBy4ha-50" style="edgeStyle=orthogonalEdgeStyle;rounded=0;orthogonalLoop=1;jettySize=auto;html=1;" edge="1" parent="1" source="kB5-pjULN5O7tpdBy4ha-51" target="kB5-pjULN5O7tpdBy4ha-54">
          <mxGeometry relative="1" as="geometry" />
        </mxCell>
        <mxCell id="kB5-pjULN5O7tpdBy4ha-51" value="getDescriptionDom" style="rounded=1;whiteSpace=wrap;html=1;" vertex="1" parent="1">
          <mxGeometry x="389" y="1680" width="120" height="60" as="geometry" />
        </mxCell>
        <mxCell id="kB5-pjULN5O7tpdBy4ha-52" value="XML" style="text;html=1;strokeColor=none;fillColor=none;align=center;verticalAlign=middle;whiteSpace=wrap;rounded=0;" vertex="1" parent="1">
          <mxGeometry x="400" y="1650" width="40" height="20" as="geometry" />
        </mxCell>
        <mxCell id="kB5-pjULN5O7tpdBy4ha-53" style="edgeStyle=orthogonalEdgeStyle;rounded=0;orthogonalLoop=1;jettySize=auto;html=1;entryX=0.5;entryY=0;entryDx=0;entryDy=0;" edge="1" parent="1" source="kB5-pjULN5O7tpdBy4ha-54" target="kB5-pjULN5O7tpdBy4ha-56">
          <mxGeometry relative="1" as="geometry" />
        </mxCell>
        <mxCell id="kB5-pjULN5O7tpdBy4ha-54" value="get XML&lt;br&gt;(replace from xml to real tags ex.&lt;br&gt;&amp;lt;hi bold&amp;gt; =&amp;gt; &amp;lt;b&amp;gt;)&lt;br&gt;convert to HTML and return &amp;lt;div&amp;gt; tag" style="rounded=1;whiteSpace=wrap;html=1;" vertex="1" parent="1">
          <mxGeometry x="389" y="1770" width="120" height="90" as="geometry" />
        </mxCell>
        <mxCell id="kB5-pjULN5O7tpdBy4ha-55" style="edgeStyle=orthogonalEdgeStyle;rounded=0;orthogonalLoop=1;jettySize=auto;html=1;entryX=0.5;entryY=0;entryDx=0;entryDy=0;" edge="1" parent="1" source="kB5-pjULN5O7tpdBy4ha-56" target="kB5-pjULN5O7tpdBy4ha-57">
          <mxGeometry relative="1" as="geometry" />
        </mxCell>
        <mxCell id="kB5-pjULN5O7tpdBy4ha-56" value="select all p tags, set paragraphs number and return innerHTML(string)" style="rounded=1;whiteSpace=wrap;html=1;" vertex="1" parent="1">
          <mxGeometry x="389" y="1890" width="120" height="90" as="geometry" />
        </mxCell>
        <mxCell id="kB5-pjULN5O7tpdBy4ha-57" value="display&lt;br&gt;(&amp;lt;div dangeroslySetInnerHTML =&amp;nbsp; innerHtml&amp;gt;)" style="ellipse;whiteSpace=wrap;html=1;" vertex="1" parent="1">
          <mxGeometry x="323.5" y="2040" width="251" height="80" as="geometry" />
        </mxCell>
        <mxCell id="kB5-pjULN5O7tpdBy4ha-58" value="itemXML.innerHTML" style="text;html=1;strokeColor=none;fillColor=none;align=center;verticalAlign=middle;whiteSpace=wrap;rounded=0;" vertex="1" parent="1">
          <mxGeometry x="560" y="1940" width="40" height="20" as="geometry" />
        </mxCell>
        <mxCell id="kB5-pjULN5O7tpdBy4ha-59" value="get content$" style="text;html=1;strokeColor=none;fillColor=none;align=center;verticalAlign=middle;whiteSpace=wrap;rounded=0;" vertex="1" parent="1">
          <mxGeometry x="330" y="40" width="120" height="20" as="geometry" />
        </mxCell>
        <mxCell id="kB5-pjULN5O7tpdBy4ha-60" value="FullTextMultipartParser" style="text;html=1;strokeColor=none;fillColor=none;align=center;verticalAlign=middle;whiteSpace=wrap;rounded=0;" vertex="1" parent="1">
          <mxGeometry x="100" y="240" width="40" height="20" as="geometry" />
        </mxCell>
        <mxCell id="kB5-pjULN5O7tpdBy4ha-61" value="XMLSerializer().serializeToString" style="text;html=1;strokeColor=none;fillColor=none;align=center;verticalAlign=middle;whiteSpace=wrap;rounded=0;" vertex="1" parent="1">
          <mxGeometry x="670" y="710" width="40" height="20" as="geometry" />
        </mxCell>
        <mxCell id="kB5-pjULN5O7tpdBy4ha-62" value="new DOMParser().parseFromString" style="text;html=1;strokeColor=none;fillColor=none;align=center;verticalAlign=middle;whiteSpace=wrap;rounded=0;" vertex="1" parent="1">
          <mxGeometry x="610" y="470" width="220" height="20" as="geometry" />
        </mxCell>
        <mxCell id="kB5-pjULN5O7tpdBy4ha-63" value="FullText" style="text;html=1;strokeColor=none;fillColor=none;align=center;verticalAlign=middle;whiteSpace=wrap;rounded=0;" vertex="1" parent="1">
          <mxGeometry x="362.5" y="20" width="50" height="20" as="geometry" />
        </mxCell>
        <mxCell id="kB5-pjULN5O7tpdBy4ha-64" value="highlightByRanges" style="text;html=1;strokeColor=none;fillColor=none;align=center;verticalAlign=middle;whiteSpace=wrap;rounded=0;" vertex="1" parent="1">
          <mxGeometry x="199" y="930" width="110" height="20" as="geometry" />
        </mxCell>
        <mxCell id="kB5-pjULN5O7tpdBy4ha-65" style="edgeStyle=orthogonalEdgeStyle;rounded=0;orthogonalLoop=1;jettySize=auto;html=1;entryX=1;entryY=0.5;entryDx=0;entryDy=0;exitX=0.5;exitY=1;exitDx=0;exitDy=0;" edge="1" parent="1" source="kB5-pjULN5O7tpdBy4ha-43" target="kB5-pjULN5O7tpdBy4ha-45">
          <mxGeometry relative="1" as="geometry" />
        </mxCell>
        <mxCell id="kB5-pjULN5O7tpdBy4ha-66" value="DOMParser().parseFromString" style="text;html=1;strokeColor=none;fillColor=none;align=center;verticalAlign=middle;whiteSpace=wrap;rounded=0;" vertex="1" parent="1">
          <mxGeometry x="787" y="990" width="40" height="20" as="geometry" />
        </mxCell>
        <mxCell id="kB5-pjULN5O7tpdBy4ha-67" value="XMLSerializer().serializeToString" style="text;html=1;strokeColor=none;fillColor=none;align=center;verticalAlign=middle;whiteSpace=wrap;rounded=0;" vertex="1" parent="1">
          <mxGeometry x="787" y="1260" width="40" height="20" as="geometry" />
        </mxCell>
        <mxCell id="kB5-pjULN5O7tpdBy4ha-68" value="DOMParser().parseFromString" style="text;html=1;strokeColor=none;fillColor=none;align=center;verticalAlign=middle;whiteSpace=wrap;rounded=0;" vertex="1" parent="1">
          <mxGeometry x="580" y="1780" width="40" height="20" as="geometry" />
        </mxCell>
      </root>
    </mxGraphModel>
  </diagram>
</mxfile>
